<?xml version="1.0" encoding="UTF-8"?>
<svg xmlns="http://www.w3.org/2000/svg" xmlns:xlink="http://www.w3.org/1999/xlink" width="431pt" height="400pt" viewBox="0 0 431 400" version="1.1">
<g id="surface1">
<path style="fill-rule:nonzero;fill:rgb(20%,20%,20%);fill-opacity:1;stroke-width:1;stroke-linecap:butt;stroke-linejoin:miter;stroke:rgb(0%,0%,0%);stroke-opacity:1;stroke-miterlimit:4;" d="M 1396.03646 185.9368 C 1396.03646 185.9368 1404.19442 194.08902 1423.405585 223.930357 C 1436.23816 243.799513 1440.641347 229.660977 1463.607285 259.261658 C 1463.607285 259.261658 1524.060629 377.574137 1475.097793 478.378896 C 1467.588248 493.825999 1454.921546 492.607679 1470.679527 587.471244 C 1492.333556 717.786438 1462.295376 717.786438 1462.295376 717.786438 C 1462.295376 717.786438 1469.774763 826.984073 1379.238 909.95021 C 1354.945075 932.195844 1451.679474 948.816145 1270.138488 1174.987611 C 1197.259712 1294.247672 1236.556647 1313.244451 1236.556647 1313.244451 C 1236.556647 1313.244451 1298.397297 1351.674197 1292.21474 1391.878781 C 1286.032183 1432.068324 1237.974112 1440.731938 1177.807276 1419.704625 C 1123.476171 1400.707846 1133.639692 1356.532439 1118.605522 1363.601708 C 1103.601512 1370.670976 1060.670439 1360.879287 1041.30848 1387.020539 C 1015.643328 1421.690036 1064.71172 1466.527247 1051.034698 1500.098751 C 1039.981492 1511.590073 1005.087743 1561.496099 944.121699 1527.488406 C 890.242976 1515.560896 888.478686 1464.767451 890.680279 1439.588822 C 870.80562 1432.955743 790.854602 1448.869117 767.888664 1451.065103 C 744.907648 1453.29117 644.629588 1446.206861 621.211268 1418.396058 C 597.808028 1390.555174 590.735786 1362.72933 565.568255 1365.376545 C 540.385645 1368.023761 433.050422 1350.365631 424.636113 1277.025731 C 416.251963 1203.700873 413.597987 1209.882723 413.597987 1209.882723 L 374.482004 1191.141641 C 272.379336 1267.760478 240.803057 1279.597742 197.947381 1330.767212 C 91.758194 1457.547772 126.47099 1421.088397 2.970643 1451.290718 C 7.38891 1430.082912 -12.96829 1443.288907 18.396877 1384.659103 C 171.905245 1222.080971 285.136515 1136.452578 363.685148 1117.109856 C 363.685148 1117.109856 327.645365 977.288752 452.925081 872.392842 C 523.557026 813.266684 489.266453 666.376312 687.349549 561.269828 C 713.904386 547.191455 791.457778 499.255799 965.021758 485.568492 C 965.021758 485.568492 991.878182 431.601396 985.213084 410.784657 C 972.968605 372.520362 971.294791 347.597431 971.294791 347.597431 C 971.294791 347.597431 888.026303 230.097165 909.665253 170.474655 C 931.319282 110.837104 1079.308587 201.398944 1079.308587 201.398944 C 1076.594293 203.790462 1094.041168 177.64921 1254.229713 141.325204 C 1254.229713 141.325204 1335.070416 -7.55058 1358.036353 0.842296 C 1381.002291 9.235172 1381.002291 24.697316 1396.03646 185.9368 " transform="matrix(0.259045,0,0,0.259707,0,-0.000000000000029525)"/>
<path style="fill-rule:nonzero;fill:rgb(94.901961%,94.901961%,94.901961%);fill-opacity:1;stroke-width:1;stroke-linecap:butt;stroke-linejoin:miter;stroke:rgb(0%,0%,0%);stroke-opacity:1;stroke-miterlimit:4;" d="M 1325.977533 1030.654208 C 1325.977533 1030.654208 1337.211692 1087.509175 1329.083891 1098.744799 C 1320.956091 1109.980424 1269.113088 1184.32807 1266.609906 1184.959791 C 1264.121804 1185.576472 1250.384464 1209.311165 1232.877272 1213.688095 C 1215.400239 1218.065025 1209.76054 1234.941023 1186.025553 1239.934634 C 1162.290566 1244.928245 1135.419062 1252.418661 1122.299977 1264.286007 C 1109.195972 1276.168395 1102.319762 1295.526157 1077.966519 1289.915865 C 1053.583118 1284.290533 1055.468043 1261.172521 1061.710918 1252.418661 C 1067.953793 1243.679842 1078.569696 1230.564093 1076.081593 1215.568219 C 1073.578412 1200.572346 1061.092662 1171.212321 1081.706212 1183.079667 C 1102.319762 1194.947013 1091.070524 1210.559568 1101.068172 1212.439692 C 1111.065819 1214.319817 1138.555578 1216.816622 1144.180197 1199.323943 C 1149.789737 1181.831264 1127.30634 1175.589251 1154.781021 1171.212321 C 1182.270781 1166.835391 1213.515313 1159.344974 1208.524029 1147.477628 C 1203.517666 1135.610282 1204.135921 1134.993601 1204.135921 1134.993601 C 1204.135921 1134.993601 1213.515313 1101.241605 1217.888341 1109.363743 C 1222.261369 1117.485881 1226.634397 1139.972171 1236.632044 1131.233352 C 1246.629691 1122.494533 1279.110735 1103.121729 1282.865507 1096.864675 C 1286.605201 1090.622661 1290.359973 1083.748926 1299.09095 1072.513301 C 1307.837006 1061.262636 1325.977533 1030.654208 1325.977533 1030.654208 Z M 1325.977533 1030.654208 " transform="matrix(0.259045,0,0,0.259707,0,-0.000000000000029525)"/>
<path style="fill-rule:nonzero;fill:rgb(83.137255%,66.666667%,0%);fill-opacity:1;stroke-width:1;stroke-linecap:butt;stroke-linejoin:miter;stroke:rgb(0%,0%,0%);stroke-opacity:1;stroke-miterlimit:4;" d="M 1315.346551 940.077326 C 1315.346551 940.077326 1272.852781 982.553101 1236.013789 993.803766 C 1199.144637 1005.039391 1185.407297 1028.157402 1135.419062 1023.795513 C 1085.445905 1019.418583 1060.459327 1019.418583 1059.841072 1027.52568 C 1059.207737 1035.66286 1094.191962 1062.511038 1111.699154 1059.397552 C 1129.176187 1056.269025 1126.673005 1038.776346 1152.926254 1048.146887 C 1179.164423 1057.517428 1216.018494 1061.262636 1234.128863 1057.517428 C 1252.239231 1053.757178 1282.232172 1005.039391 1287.223456 1043.769957 C 1292.21474 1082.500523 1305.96716 1095.616272 1317.216398 1071.264898 C 1328.465636 1046.898484 1353.452214 1001.294182 1364.068116 995.683891 C 1374.699099 990.043517 1315.346551 940.077326 1315.346551 940.077326 Z M 1315.346551 940.077326 " transform="matrix(0.259045,0,0,0.259707,0,-0.000000000000029525)"/>
<path style="fill-rule:nonzero;fill:rgb(94.901961%,94.901961%,94.901961%);fill-opacity:1;stroke-width:1;stroke-linecap:butt;stroke-linejoin:miter;stroke:rgb(0%,0%,0%);stroke-opacity:1;stroke-miterlimit:4;" d="M 1416.273025 439.016608 C 1410.633327 439.212141 1404.827755 445.063088 1400.937268 450.914036 C 1395.930904 458.419493 1419.047636 471.535242 1422.802408 475.912172 C 1426.542101 480.274061 1413.423017 496.518338 1410.919835 504.640476 C 1408.431733 512.777655 1376.553866 528.390209 1366.571298 540.257556 C 1356.573651 552.124902 1372.195917 544.634486 1379.690383 553.373305 C 1387.184848 562.112124 1377.187201 567.120776 1364.701452 573.37783 C 1352.200623 579.604803 1359.710168 588.975344 1360.961759 598.360925 C 1362.19827 607.716425 1349.697441 613.356799 1345.339492 611.476674 C 1340.951385 609.59655 1316.598142 612.093355 1311.606858 618.335369 C 1306.585415 624.592423 1284.735354 617.102007 1276.622633 612.093355 C 1268.494832 607.099744 1272.852781 595.849079 1273.486116 592.103871 C 1274.104372 588.358663 1260.367032 579.604803 1254.124157 578.988122 C 1247.881282 578.3564 1251.620975 563.992248 1257.245594 556.501832 C 1262.870213 548.996375 1247.247947 544.002764 1238.501891 539.625834 C 1229.770914 535.248904 1207.272438 556.501832 1201.647819 558.381957 C 1196.0232 560.24704 1158.535793 595.232398 1150.423072 605.21962 C 1142.295271 615.221883 1050.47676 577.739719 1050.47676 577.739719 C 1054.306929 583.365052 1058.664878 589.291204 1063.384732 595.382808 C 1109.060257 629.616116 1158.219126 684.982025 1164.009618 719.756809 C 1164.341365 744.393961 1163.285807 755.885282 1172.288213 765.782258 C 1183.100148 777.679686 1188.785085 795.202447 1212.444675 798.85741 C 1264.921013 804.678275 1256.476544 843.965358 1328.405318 910.025415 C 1340.348209 915.470256 1306.751289 929.71408 1305.348904 938.197202 C 1307.686212 940.73913 1314.773534 944.905486 1322.991811 949.808851 L 1348.747439 985.170234 C 1350.888714 993.623274 1359.981597 1022.817848 1366.571298 1017.222598 C 1375.573704 1025.811007 1387.501516 976.852563 1385.495954 947.597825 C 1384.244364 929.292932 1371.004644 923.878173 1380.157844 914.071443 C 1494.173244 792.104002 1458.073142 716.703486 1465.718402 718.71898 C 1501.13993 693.570434 1460.561245 543.536493 1464.662843 515.27446 C 1466.954913 499.300922 1448.407242 483.402589 1443.415958 477.777256 C 1438.409595 472.166964 1437.158004 466.541631 1439.661186 457.171091 C 1442.164368 447.80055 1427.793692 444.672022 1420.917482 440.295092 C 1419.424621 439.34751 1417.856363 438.956444 1416.273025 439.016608 Z M 1416.273025 439.016608 " transform="matrix(0.259045,0,0,0.259707,0,-0.000000000000029525)"/>
<path style="fill-rule:nonzero;fill:rgb(83.137255%,66.666667%,0%);fill-opacity:1;stroke-width:1;stroke-linecap:butt;stroke-linejoin:miter;stroke:rgb(0%,0%,0%);stroke-opacity:1;stroke-miterlimit:4;" d="M 1019.232227 548.364653 C 1019.232227 548.364653 1038.594187 575.859595 1050.47676 577.739719 C 1062.344253 579.604803 1137.303988 619.583772 1146.683379 612.093355 C 1156.032612 604.602939 1219.758187 538.377431 1236.013789 542.13768 C 1252.239231 545.882888 1262.251958 560.24704 1276.622633 558.381957 C 1290.978229 556.501832 1313.461625 539.625834 1321.589426 538.377431 C 1329.717226 537.129028 1345.957748 547.11625 1354.085549 544.002764 C 1362.19827 540.889278 1386.566592 532.767139 1391.557876 527.141807 C 1396.54916 521.516474 1417.16271 506.5206 1419.665892 500.278587 C 1422.169073 494.021532 1427.175437 487.779519 1427.793692 479.025659 C 1428.427027 470.28684 1437.77626 456.539369 1452.146935 454.042563 C 1466.517611 451.545758 1476.530337 444.672022 1480.27003 437.181606 C 1484.024803 429.69119 1495.258961 415.943719 1495.258961 411.566789 C 1495.258961 407.189859 1499.631989 389.712221 1489.016086 325.983519 C 1484.59782 299.511365 1475.263667 281.62762 1464.647764 286.00455 C 1454.031861 290.38148 1401.555523 314.732853 1390.924541 314.732853 C 1380.323718 314.732853 1365.953042 317.229659 1369.692735 321.62163 C 1373.447508 325.983519 1387.184848 336.587421 1394.694393 335.354059 C 1402.188858 334.105657 1424.03892 341.596073 1426.542101 345.356322 C 1429.045283 349.10153 1445.904061 363.465682 1440.279442 370.956098 C 1434.669902 378.446515 1430.91513 390.960624 1437.77626 395.322513 C 1444.65247 399.699443 1445.285805 405.324775 1441.531032 414.695316 C 1437.77626 424.050816 1436.539749 436.549884 1432.16672 430.939593 C 1427.793692 425.31426 1422.169073 413.446914 1410.30158 412.18347 C 1398.434086 410.935067 1390.306285 405.324775 1386.566592 412.18347 C 1382.81182 419.072246 1381.575308 416.5604 1377.187201 423.434135 C 1372.814173 430.307871 1376.553866 436.549884 1369.692735 434.06812 C 1362.816526 431.556273 1367.822889 417.192122 1359.076833 418.440524 C 1350.330776 419.688927 1340.333129 414.695316 1342.821231 424.050816 C 1345.339492 433.436398 1344.706157 442.175217 1339.714873 443.42362 C 1334.70851 444.672022 1319.7045 457.171091 1319.7045 444.672022 C 1319.7045 432.187995 1325.977533 426.562663 1319.7045 425.930941 C 1313.461625 425.31426 1288.475047 415.943719 1277.240889 430.307871 C 1265.991651 444.672022 1254.124157 435.301482 1254.124157 428.427746 C 1254.124157 421.554011 1259.748776 364.699044 1265.991651 359.720474 C 1272.234525 354.711822 1246.629691 355.343544 1249.751129 348.469808 C 1252.872566 341.596073 1247.247947 320.358186 1241.005072 314.116172 C 1234.762198 307.874159 1189.14699 287.252952 1189.14699 278.514133 C 1189.14699 269.760273 1196.641456 247.890664 1199.144637 241.016929 C 1201.647819 234.158235 1194.786689 209.776779 1186.025553 214.153709 C 1177.279497 218.530639 1167.915185 231.029707 1159.802463 236.023318 C 1151.674663 241.016929 1131.679369 254.132678 1124.803159 268.49683 C 1117.942028 282.876022 1111.699154 311.604326 1116.057103 317.229659 C 1120.430131 322.854991 1150.423072 320.358186 1153.544509 329.097005 C 1156.665947 337.850865 1145.431788 376.581431 1132.312704 376.581431 C 1119.193619 376.581431 1105.4412 381.575042 1106.677711 390.328902 C 1107.929302 399.067721 1115.438847 404.076373 1121.681721 414.695316 C 1127.924596 425.31426 1111.065819 436.549884 1111.699154 447.80055 C 1112.317409 459.051215 1093.573706 480.274061 1106.677711 488.41124 C 1119.796796 496.518338 1157.917538 511.514211 1162.290566 519.636349 C 1166.663594 527.758487 1173.539804 533.38382 1186.025553 537.76075 C 1198.526382 542.13768 1204.769256 555.253429 1198.526382 555.253429 C 1192.268428 555.253429 1145.431788 581.484927 1144.180197 572.114386 C 1142.928607 562.743846 1092.940371 558.998637 1101.068172 542.13768 C 1109.195972 525.261682 1036.106084 534.632223 1032.969568 540.889278 C 1029.86321 547.11625 1019.232227 548.364653 1019.232227 548.364653 Z M 1019.232227 548.364653 " transform="matrix(0.259045,0,0,0.259707,0,-0.000000000000029525)"/>
<path style="fill-rule:nonzero;fill:rgb(0%,0%,0%);fill-opacity:1;stroke-width:1;stroke-linecap:butt;stroke-linejoin:miter;stroke:rgb(0%,0%,0%);stroke-opacity:1;stroke-miterlimit:4;" d="M 1290.163941 511.845113 C 1290.163941 511.845113 1366.01336 474.693852 1370.401468 453.471005 C 1371.230835 416.094129 1376.026087 449.966453 1379.25308 451.891701 C 1387.411039 456.734902 1401.947588 463.518391 1413.211905 463.157407 C 1419.846845 462.946833 1392.130894 464.887122 1382.238802 469.83561 C 1367.204633 477.38619 1290.163941 511.845113 1290.163941 511.845113 Z M 1290.163941 511.845113 " transform="matrix(0.259045,0,0,0.259707,0,-0.000000000000029525)"/>
<path style="fill-rule:nonzero;fill:rgb(83.137255%,66.666667%,0%);fill-opacity:1;stroke-width:1;stroke-linecap:butt;stroke-linejoin:miter;stroke:rgb(0%,0%,0%);stroke-opacity:1;stroke-miterlimit:4;" d="M 1186.658888 167.917686 C 1186.658888 167.917686 1232.259016 171.046213 1229.137579 164.804199 C 1226.001062 158.562186 1234.762198 149.191645 1241.623328 154.801937 C 1248.499538 160.427269 1274.104372 178.55167 1292.21474 181.048476 C 1310.355267 183.545281 1312.225114 194.795947 1328.465636 201.654641 C 1344.706157 208.543417 1352.200623 176.054865 1358.443497 184.161962 C 1364.701452 192.299141 1360.961759 190.419017 1375.93561 204.166487 C 1390.924541 217.913958 1418.414301 229.781305 1414.056352 237.271721 C 1409.668245 244.762137 1405.295216 259.14133 1396.54916 251.019192 C 1387.818183 242.897054 1383.430076 236.023318 1372.814173 246.642262 C 1362.19827 257.261205 1353.452214 276.002287 1346.591083 273.505482 C 1339.714873 271.008676 1350.949032 244.145456 1348.44585 236.65504 C 1345.957748 229.149583 1317.216398 236.023318 1317.849733 228.517861 C 1318.467988 221.027445 1307.837006 211.025182 1290.359973 203.534766 C 1272.852781 196.029308 1261.618622 184.793684 1251.620975 190.419017 C 1241.623328 196.029308 1211.645466 185.410365 1215.400239 179.800073 C 1219.139932 174.17474 1213.515313 187.922211 1207.890694 188.538892 C 1202.281154 189.170614 1186.658888 167.917686 1186.658888 167.917686 Z M 1186.658888 167.917686 " transform="matrix(0.259045,0,0,0.259707,0,-0.000000000000029525)"/>
<path style="fill-rule:nonzero;fill:rgb(83.137255%,66.666667%,0%);fill-opacity:1;stroke-width:1;stroke-linecap:butt;stroke-linejoin:miter;stroke:rgb(0%,0%,0%);stroke-opacity:1;stroke-miterlimit:4;" d="M 890.544564 1382.989552 C 890.544564 1382.989552 921.774017 1352.381124 934.893102 1372.68647 C 948.012186 1392.976774 932.088332 1389.246607 937.396283 1391.728371 C 942.704235 1394.240218 942.387567 1393.924357 942.387567 1393.924357 C 942.387567 1393.924357 960.196347 1391.728371 964.252708 1385.802219 C 968.309069 1379.861025 985.499593 1384.869677 983.931335 1389.863288 C 982.363076 1394.856899 991.109133 1401.429814 997.985342 1396.421162 C 1004.861552 1391.41251 1023.906844 1386.749801 1026.410025 1390.795829 C 1028.913207 1394.856899 1031.401309 1403.610759 1032.351312 1409.852772 C 1033.286235 1416.109827 1039.212442 1433.587465 1040.162445 1435.768409 C 1041.097368 1437.964395 1050.47676 1454.208671 1047.65691 1455.457074 C 1044.837061 1456.705476 982.679744 1457.337198 982.679744 1457.337198 L 889.911229 1456.404656 C 889.911229 1456.404656 888.659639 1434.219187 891.796155 1431.722381 C 894.917593 1429.225576 895.219181 1392.044232 894.600925 1391.11169 C 893.96759 1390.179149 893.666002 1389.863288 893.666002 1389.863288 L 893.349334 1389.562468 Z M 890.544564 1382.989552 " transform="matrix(0.259045,0,0,0.259707,0,-0.000000000000029525)"/>
<path style="fill-rule:nonzero;fill:rgb(94.901961%,94.901961%,94.901961%);fill-opacity:1;stroke-width:1;stroke-linecap:butt;stroke-linejoin:miter;stroke:rgb(0%,0%,0%);stroke-opacity:1;stroke-miterlimit:4;" d="M 942.0709 1450.764283 C 942.0709 1450.764283 971.747173 1431.722381 980.508309 1440.4612 C 989.239286 1449.200019 1008.616325 1441.709603 1011.104427 1441.709603 C 1013.607608 1441.709603 1032.6529 1441.092922 1035.789417 1445.153991 C 1038.910854 1449.200019 1047.973578 1452.644407 1048.591834 1458.585601 C 1049.225169 1464.511754 1060.037104 1495.075059 1051.034698 1500.098751 C 1042.032291 1505.122444 1013.06475 1564.865283 942.885188 1528.736809 C 928.001812 1521.080942 920.824015 1520.689876 912.816849 1513.485238 C 883.396925 1486.983002 890.966788 1456.91605 890.227897 1454.208671 C 889.292974 1450.764283 928.650227 1449.200019 933.339923 1451.396005 C 938.014539 1453.576949 942.0709 1450.764283 942.0709 1450.764283 Z M 942.0709 1450.764283 " transform="matrix(0.259045,0,0,0.259707,0,-0.000000000000029525)"/>
<path style="fill-rule:nonzero;fill:rgb(83.137255%,66.666667%,0%);fill-opacity:1;stroke-width:1;stroke-linecap:butt;stroke-linejoin:miter;stroke:rgb(0%,0%,0%);stroke-opacity:1;stroke-miterlimit:4;" d="M 1169.785031 1343.326444 C 1213.83198 1329.263112 1221.643113 1332.075779 1223.814548 1329.578973 C 1226.001062 1327.082168 1236.948712 1313.334697 1240.070149 1315.530683 C 1243.191587 1317.711627 1279.412323 1336.753529 1291.294896 1369.557942 C 1303.16239 1402.362356 1151.674663 1406.724245 1151.674663 1406.724245 C 1151.674663 1406.724245 1129.492855 1390.179149 1129.809522 1367.061137 C 1130.11111 1343.943125 1146.683379 1351.749402 1151.674663 1350.501 C 1156.665947 1349.252597 1161.657231 1345.507389 1169.785031 1343.326444 Z M 1169.785031 1343.326444 " transform="matrix(0.259045,0,0,0.259707,0,-0.000000000000029525)"/>
<path style="fill-rule:nonzero;fill:rgb(94.901961%,94.901961%,94.901961%);fill-opacity:1;stroke-width:1;stroke-linecap:butt;stroke-linejoin:miter;stroke:rgb(0%,0%,0%);stroke-opacity:1;stroke-miterlimit:4;" d="M 1164.160412 1383.305413 C 1164.160412 1383.305413 1176.962829 1358.938999 1190.715249 1362.067526 C 1204.452589 1365.181012 1212.897057 1374.250733 1224.131216 1369.873803 C 1235.380453 1365.496873 1261.000367 1357.374735 1269.429755 1360.503262 C 1277.874224 1363.616749 1288.610762 1364.203348 1291.294896 1371.753928 C 1293.948872 1379.214262 1299.030632 1417.057409 1261.93529 1427.977173 C 1209.866096 1443.273866 1147.723858 1407.446213 1151.674663 1406.724245 C 1153.544509 1404.5433 1150.72466 1390.479969 1164.160412 1383.305413 Z M 1164.160412 1383.305413 " transform="matrix(0.259045,0,0,0.259707,0,-0.000000000000029525)"/>
<path style="fill-rule:nonzero;fill:rgb(100%,86.666667%,33.333333%);fill-opacity:1;stroke-width:1;stroke-linecap:butt;stroke-linejoin:miter;stroke:rgb(0%,0%,0%);stroke-opacity:1;stroke-miterlimit:4;" d="M 903.580492 435.325205 C 903.580492 435.325205 926.77262 429.805159 923.228959 419.878102 C 919.700378 409.936003 921.238478 379.222288 939.575037 373.491668 C 957.911597 367.746008 975.795774 367.084204 989.487876 381.2077 C 1003.195057 395.361277 996.771229 397.782878 1004.959348 400.655708 C 1013.132387 403.528538 1015.560171 401.543127 1015.560171 401.543127 C 1015.560171 401.543127 1004.069663 408.161165 1004.718077 409.710388 C 1005.39665 411.259611 989.276764 432.67799 974.468786 437.551273 C 959.675887 442.409515 937.810746 437.325658 932.502795 434.227212 C 927.209923 431.128767 904.907479 435.565861 904.907479 435.565861 Z M 903.580492 435.325205 " transform="matrix(0.259045,0,0,0.259707,61.255917,-15.61163)"/>
<path style=" stroke:none;fill-rule:nonzero;fill:rgb(0%,0%,0%);fill-opacity:1;" d="M 316.296875 88.347656 C 316.296875 85.054688 313.507812 82.386719 310.066406 82.386719 C 306.628906 82.386719 303.835938 85.054688 303.835938 88.347656 C 303.835938 91.640625 306.628906 94.3125 310.066406 94.3125 C 313.507812 94.3125 316.296875 91.640625 316.296875 88.347656 Z M 316.296875 88.347656 "/>
<path style="fill-rule:nonzero;fill:rgb(100%,100%,100%);fill-opacity:1;stroke-width:1;stroke-linecap:butt;stroke-linejoin:miter;stroke:rgb(0%,0%,0%);stroke-opacity:1;stroke-miterlimit:4;" d="M 950.145702 395.887712 C 954.232221 390.487994 954.669524 390.051806 955.317938 390.26238 C 955.996512 390.487994 961.515575 391.375413 960.414778 394.910047 C 959.298902 398.444682 955.317938 403.302924 953.900474 403.197637 C 952.452851 403.09235 948.698079 397.888165 950.145702 395.887712 Z M 950.145702 395.887712 " transform="matrix(0.259045,0,0,0.259707,61.255917,-15.61163)"/>
<path style="fill-rule:nonzero;fill:rgb(100%,86.666667%,33.333333%);fill-opacity:1;stroke-width:1;stroke-linecap:butt;stroke-linejoin:miter;stroke:rgb(0%,0%,0%);stroke-opacity:1;stroke-miterlimit:4;" d="M 1103.12629 358.841738 C 1103.12629 358.841738 1108.99218 350.463903 1109.263609 347.891892 C 1109.791388 342.717789 1109.203291 326.654005 1116.049342 320.487196 C 1122.895393 314.290306 1131.520814 310.545098 1139.467662 312.09432 C 1147.41451 313.643543 1156.356598 321.795763 1157.909777 320.923385 C 1160.548674 324.232405 1170.81775 320.261582 1170.81775 320.261582 C 1170.81775 320.261582 1162.614552 325.841791 1163.082014 329.105687 C 1163.293126 330.444336 1171.119338 345.846317 1160.443118 361.759691 C 1154.53199 370.588756 1150.415312 374.815276 1132.063673 370.754207 C 1119.004906 367.866336 1115.385848 358.240098 1114.285052 356.254686 C 1111.193773 356.254686 1103.12629 358.841738 1103.12629 358.841738 Z M 1103.12629 358.841738 " transform="matrix(0.259045,0,0,0.259707,61.255917,-15.61163)"/>
<path style=" stroke:none;fill-rule:nonzero;fill:rgb(0%,0%,0%);fill-opacity:1;" d="M 361.003906 72.527344 C 361.003906 69.453125 358.570312 66.957031 355.570312 66.957031 C 352.570312 66.957031 350.132812 69.453125 350.132812 72.527344 C 350.132812 75.59375 352.570312 78.089844 355.570312 78.089844 C 358.570312 78.089844 361.003906 75.59375 361.003906 72.527344 Z M 361.003906 72.527344 "/>
<path style="fill-rule:nonzero;fill:rgb(100%,100%,100%);fill-opacity:1;stroke-width:1;stroke-linecap:butt;stroke-linejoin:miter;stroke:rgb(0%,0%,0%);stroke-opacity:1;stroke-miterlimit:4;" d="M 1116.546963 336.851801 C 1120.633482 331.452083 1121.070785 331.000853 1121.734279 331.226468 C 1122.382693 331.452083 1127.916836 332.339502 1126.816039 335.874136 C 1125.715242 339.40877 1121.734279 344.251971 1120.286656 344.146684 C 1118.869191 344.026356 1115.114419 338.837212 1116.546963 336.851801 Z M 1116.546963 336.851801 " transform="matrix(0.259045,0,0,0.259707,61.255917,-15.61163)"/>
<path style="fill-rule:nonzero;fill:rgb(50.196078%,50.196078%,50.196078%);fill-opacity:1;stroke-width:1;stroke-linecap:butt;stroke-linejoin:miter;stroke:rgb(0%,0%,0%);stroke-opacity:1;stroke-miterlimit:4;" d="M 1339.081538 395.322513 C 1355.940316 374.084626 1372.814173 356.276086 1386.566592 365.962487 C 1400.303933 375.648889 1418.94208 369.677614 1421.867485 372.520362 C 1426.813531 377.333481 1410.407135 400.677108 1403.742037 397.503457 C 1400.967426 396.17985 1399.685677 385.335291 1394.694393 386.267833 C 1385.315002 385.01943 1387.501516 394.07411 1385.631669 399.699443 C 1383.535631 405.926415 1377.820536 413.747734 1376.252278 407.50572 C 1374.699099 401.263706 1375.000687 383.771027 1369.692735 385.951972 C 1364.384784 388.147957 1342.519643 408.754123 1338.463283 405.640636 C 1334.391843 402.512109 1339.081538 395.322513 1339.081538 395.322513 Z M 1339.081538 395.322513 " transform="matrix(0.259045,0,0,0.259707,0,-0.000000000000029525)"/>
<path style="fill:none;stroke-width:1;stroke-linecap:butt;stroke-linejoin:miter;stroke:rgb(93.333333%,93.333333%,93.72549%);stroke-opacity:0.941176;stroke-miterlimit:4;" d="M 1421.550818 384.703569 C 1421.128594 384.974307 1631.606963 504.264451 1647.063356 591.472149 " transform="matrix(0.259045,0,0,0.259707,0,-0.000000000000029525)"/>
<path style="fill:none;stroke-width:1;stroke-linecap:butt;stroke-linejoin:miter;stroke:rgb(93.333333%,93.333333%,93.72549%);stroke-opacity:0.941176;stroke-miterlimit:4;" d="M 1187.570972 454.186615 C 1187.570972 454.186615 1398.727914 605.378712 1416.220026 688.465177 " transform="matrix(0.259045,0,0,0.259707,61.255917,-15.61163)"/>
<path style="fill:none;stroke-width:1;stroke-linecap:butt;stroke-linejoin:miter;stroke:rgb(93.333333%,93.333333%,93.72549%);stroke-opacity:0.941176;stroke-miterlimit:4;" d="M 1423.405585 410.935067 C 1423.405585 410.935067 1623.313289 551.49318 1620.825187 637.091492 " transform="matrix(0.259045,0,0,0.259707,0,-0.000000000000029525)"/>
<path style="fill:none;stroke-width:1;stroke-linecap:butt;stroke-linejoin:miter;stroke:rgb(93.333333%,93.333333%,93.72549%);stroke-opacity:0.941176;stroke-miterlimit:4;" d="M 1439.661186 437.181606 C 1439.661186 437.181606 1607.087847 578.988122 1610.194204 633.962964 " transform="matrix(0.259045,0,0,0.259707,0,-0.000000000000029525)"/>
<path style="fill:none;stroke-width:1;stroke-linecap:butt;stroke-linejoin:miter;stroke:rgb(93.333333%,93.333333%,93.72549%);stroke-opacity:0.941176;stroke-miterlimit:4;" d="M 1427.793692 377.213153 C 1427.793692 377.213153 1632.69268 476.543894 1654.557821 538.377431 " transform="matrix(0.259045,0,0,0.259707,0,-0.000000000000029525)"/>
<path style="fill:none;stroke-width:1;stroke-linecap:butt;stroke-linejoin:miter;stroke:rgb(93.333333%,93.333333%,93.72549%);stroke-opacity:0.941176;stroke-miterlimit:4;" d="M 1283.483763 477.777256 C 1283.483763 477.777256 1194.786689 633.962964 1237.868556 690.186209 " transform="matrix(0.259045,0,0,0.259707,0,-0.000000000000029525)"/>
<path style="fill:none;stroke-width:1;stroke-linecap:butt;stroke-linejoin:miter;stroke:rgb(93.333333%,93.333333%,93.72549%);stroke-opacity:0.941176;stroke-miterlimit:4;" d="M 1262.870213 480.905783 C 1262.870213 480.905783 1162.290566 653.952449 1194.786689 690.186209 " transform="matrix(0.259045,0,0,0.259707,0,-0.000000000000029525)"/>
<path style="fill:none;stroke-width:1;stroke-linecap:butt;stroke-linejoin:miter;stroke:rgb(93.333333%,93.333333%,93.72549%);stroke-opacity:0.941176;stroke-miterlimit:4;" d="M 1265.358315 465.293229 C 1265.358315 465.293229 1146.050044 642.716824 1162.908821 729.548497 " transform="matrix(0.259045,0,0,0.259707,0,-0.000000000000029525)"/>
<path style="fill:none;stroke-width:1;stroke-linecap:butt;stroke-linejoin:miter;stroke:rgb(93.333333%,93.333333%,93.72549%);stroke-opacity:0.941176;stroke-miterlimit:4;" d="M 1253.490822 465.293229 C 1253.490822 465.293229 1076.714929 648.327116 1119.193619 708.927291 " transform="matrix(0.259045,0,0,0.259707,0,-0.000000000000029525)"/>
<path style="fill:none;stroke-width:1;stroke-linecap:butt;stroke-linejoin:miter;stroke:rgb(93.333333%,93.333333%,93.72549%);stroke-opacity:0.941176;stroke-miterlimit:4;" d="M 1259.748776 447.80055 C 1259.748776 447.80055 1076.714929 612.725077 1087.949087 683.312474 " transform="matrix(0.259045,0,0,0.259707,0,-0.000000000000029525)"/>
<path style="fill:none;stroke-width:1;stroke-linecap:butt;stroke-linejoin:miter;stroke:rgb(93.333333%,93.333333%,93.72549%);stroke-opacity:0.941176;stroke-miterlimit:4;" d="M 1241.623328 452.794161 C 1241.623328 452.794161 1097.328478 575.227873 1107.311046 609.59655 " transform="matrix(0.259045,0,0,0.259707,0,-0.000000000000029525)"/>
<path style="fill:none;stroke-width:1;stroke-linecap:butt;stroke-linejoin:miter;stroke:rgb(93.333333%,93.333333%,93.72549%);stroke-opacity:0.941176;stroke-miterlimit:4;" d="M 1267.243241 450.914036 C 1267.243241 450.914036 1097.328478 672.07685 1129.809522 787.636826 " transform="matrix(0.259045,0,0,0.259707,0,-0.000000000000029525)"/>
<path style="fill:none;stroke-width:1;stroke-linecap:butt;stroke-linejoin:miter;stroke:rgb(93.333333%,93.333333%,93.72549%);stroke-opacity:0.941176;stroke-miterlimit:4;" d="M 1427.793692 377.213153 C 1427.793692 377.213153 1648.948282 507.769003 1662.685622 567.120776 " transform="matrix(0.259045,0,0,0.259707,0,-0.000000000000029525)"/>
<path style="fill:none;stroke-width:1;stroke-linecap:butt;stroke-linejoin:miter;stroke:rgb(93.333333%,93.333333%,93.72549%);stroke-opacity:0.941176;stroke-miterlimit:4;" d="M 1339.714873 229.781305 C 1339.714873 229.781305 1355.940316 103.587343 1368.441145 94.848524 " transform="matrix(0.259045,0,0,0.259707,0,-0.000000000000029525)"/>
<path style="fill:none;stroke-width:1;stroke-linecap:butt;stroke-linejoin:miter;stroke:rgb(93.333333%,93.333333%,93.72549%);stroke-opacity:0.941176;stroke-miterlimit:4;" d="M 1326.58071 214.153709 C 1325.977533 209.160098 1330.335482 123.576828 1340.951385 109.212676 " transform="matrix(0.259045,0,0,0.259707,0,-0.000000000000029525)"/>
<path style="fill:none;stroke-width:1;stroke-linecap:butt;stroke-linejoin:miter;stroke:rgb(93.333333%,93.333333%,93.72549%);stroke-opacity:0.941176;stroke-miterlimit:4;" d="M 1312.225114 214.153709 C 1312.225114 214.153709 1291.611564 67.985304 1304.730648 63.608374 " transform="matrix(0.259045,0,0,0.259707,0,-0.000000000000029525)"/>
<path style="fill:none;stroke-width:1;stroke-linecap:butt;stroke-linejoin:miter;stroke:rgb(93.333333%,93.333333%,93.72549%);stroke-opacity:0.941176;stroke-miterlimit:4;" d="M 1319.101324 207.911696 C 1319.101324 207.911696 1312.843369 74.843999 1322.207681 62.976653 " transform="matrix(0.259045,0,0,0.259707,0,-0.000000000000029525)"/>
<path style="fill:none;stroke-width:1;stroke-linecap:butt;stroke-linejoin:miter;stroke:rgb(93.333333%,93.333333%,93.72549%);stroke-opacity:0.941176;stroke-miterlimit:4;" d="M 1186.025553 249.770789 C 1186.025553 249.770789 1122.299977 116.07137 1127.924596 106.715871 " transform="matrix(0.259045,0,0,0.259707,0,-0.000000000000029525)"/>
<path style="fill:none;stroke-width:1;stroke-linecap:butt;stroke-linejoin:miter;stroke:rgb(93.333333%,93.333333%,93.72549%);stroke-opacity:0.941176;stroke-miterlimit:4;" d="M 1169.785031 249.770789 C 1169.785031 249.770789 1094.825297 157.930464 1093.573706 116.703092 " transform="matrix(0.259045,0,0,0.259707,0,-0.000000000000029525)"/>
<path style="fill:none;stroke-width:1;stroke-linecap:butt;stroke-linejoin:miter;stroke:rgb(93.333333%,93.333333%,93.72549%);stroke-opacity:0.941176;stroke-miterlimit:4;" d="M 1168.53344 270.376954 C 1168.53344 270.376954 1054.834708 118.583217 1039.212442 135.444174 " transform="matrix(0.259045,0,0,0.259707,0,-0.000000000000029525)"/>
<path style="fill:none;stroke-width:1;stroke-linecap:butt;stroke-linejoin:miter;stroke:rgb(93.333333%,93.333333%,93.72549%);stroke-opacity:0.941176;stroke-miterlimit:4;" d="M 1178.531087 264.766663 C 1178.531087 264.766663 1067.335537 134.827493 1067.953793 117.319773 " transform="matrix(0.259045,0,0,0.259707,0,-0.000000000000029525)"/>
<path style="fill:none;stroke-width:1;stroke-linecap:butt;stroke-linejoin:miter;stroke:rgb(93.333333%,93.333333%,93.72549%);stroke-opacity:0.941176;stroke-miterlimit:4;" d="M 1186.658888 261.006413 C 1186.658888 261.006413 1102.938018 129.818841 1106.677711 98.578691 " transform="matrix(0.259045,0,0,0.259707,0,-0.000000000000029525)"/>
<path style="fill:none;stroke-width:1;stroke-linecap:butt;stroke-linejoin:miter;stroke:rgb(93.333333%,93.333333%,93.72549%);stroke-opacity:0.941176;stroke-miterlimit:4;" d="M 1305.348904 216.650515 C 1305.348904 216.650515 1284.117098 84.21454 1272.234525 74.227318 " transform="matrix(0.259045,0,0,0.259707,0,-0.000000000000029525)"/>
</g>
</svg>
